<svg width="1110" height="233" viewBox="0 0 1110 233" fill="none" xmlns="http://www.w3.org/2000/svg">
<path d="M389.925 191.803C375.29 191.803 362.373 188.443 351.173 181.723C340.122 174.854 331.461 165.222 325.189 152.827C319.066 140.432 316.005 125.872 316.005 109.147C316.005 96.4538 317.722 85.0298 321.157 74.8751C324.741 64.7204 329.744 56.0591 336.165 48.8911C342.736 41.5738 350.501 36.0484 359.461 32.3151C368.57 28.4324 378.576 26.4911 389.477 26.4911C400.826 26.4911 410.757 28.1338 419.269 31.4191C427.781 34.7044 434.949 39.7071 440.773 46.4271C446.746 52.9978 451.45 61.2858 454.885 71.2911L440.325 76.4431C436.442 64.4964 430.245 55.5364 421.733 49.5631C413.221 43.4404 402.469 40.3791 389.477 40.3791C377.68 40.3791 367.45 43.1418 358.789 48.6671C350.128 54.1924 343.408 62.1071 338.629 72.4111C334 82.7151 331.685 94.9604 331.685 109.147C331.685 123.184 334 135.355 338.629 145.659C343.408 155.963 350.128 163.952 358.789 169.627C367.6 175.152 377.978 177.915 389.925 177.915C402.768 177.915 413.37 174.928 421.733 168.955C430.096 162.832 436.293 153.798 440.325 141.851L454.885 147.003C451.301 157.008 446.448 165.296 440.325 171.867C434.352 178.438 427.184 183.44 418.821 186.875C410.458 190.16 400.826 191.803 389.925 191.803Z" fill="#340E8C"/>
<path d="M518.545 190.683C508.689 190.683 499.654 188.368 491.441 183.739C483.377 178.96 476.955 172.166 472.177 163.355C467.398 154.395 465.009 143.718 465.009 131.323C465.009 118.928 467.398 108.326 472.177 99.5151C476.955 90.5551 483.377 83.6858 491.441 78.9071C499.654 74.1284 508.689 71.7391 518.545 71.7391C528.55 71.7391 537.585 74.1284 545.649 78.9071C553.713 83.6858 560.134 90.5551 564.913 99.5151C569.691 108.326 572.081 118.928 572.081 131.323C572.081 143.718 569.691 154.395 564.913 163.355C560.134 172.166 553.713 178.96 545.649 183.739C537.585 188.368 528.55 190.683 518.545 190.683ZM518.545 177.243C525.414 177.243 531.761 175.6 537.585 172.315C543.409 169.03 548.038 164.027 551.473 157.307C555.057 150.438 556.849 141.776 556.849 131.323C556.849 120.72 555.057 112.059 551.473 105.339C548.038 98.4698 543.409 93.3924 537.585 90.1071C531.761 86.8218 525.414 85.1791 518.545 85.1791C511.675 85.1791 505.329 86.8218 499.505 90.1071C493.681 93.3924 488.977 98.4698 485.393 105.339C481.958 112.059 480.241 120.72 480.241 131.323C480.241 141.776 481.958 150.438 485.393 157.307C488.977 164.027 493.681 169.03 499.505 172.315C505.329 175.6 511.675 177.243 518.545 177.243Z" fill="#340E8C"/>
<path d="M587.727 187.995V30.0751H602.287V187.995H587.727Z" fill="#340E8C"/>
<path d="M679.247 191.803C667.898 191.803 657.967 189.862 649.455 185.979C640.943 181.947 633.999 176.198 628.623 168.731C623.396 161.115 619.812 152.006 617.871 141.403L632.879 137.819C634.522 146.032 637.284 153.2 641.167 159.323C645.199 165.296 650.351 169.926 656.623 173.211C663.044 176.496 670.586 178.139 679.247 178.139C687.311 178.139 693.956 176.87 699.183 174.331C704.559 171.792 708.516 168.134 711.055 163.355C713.594 158.576 714.863 152.827 714.863 146.107C714.863 138.192 712.698 131.771 708.367 126.843C704.036 121.766 697.092 117.659 687.535 114.523L662.671 106.235C650.874 102.352 642.287 97.1258 636.911 90.5551C631.684 83.8351 629.071 75.9204 629.071 66.8111C629.071 58.5978 631.162 51.5044 635.343 45.5311C639.524 39.4084 645.274 34.7044 652.591 31.4191C660.058 27.9844 668.57 26.2671 678.127 26.2671C687.236 26.2671 695.3 27.6858 702.319 30.5231C709.487 33.2111 715.46 37.1684 720.239 42.3951C725.167 47.6218 728.602 53.9684 730.543 61.4351L715.759 65.9151C712.772 57.1044 708.068 50.5338 701.647 46.2031C695.375 41.8724 687.535 39.7071 678.127 39.7071C668.122 39.7071 660.207 41.9471 654.383 46.4271C648.559 50.9071 645.647 57.3284 645.647 65.6911C645.647 71.9631 647.514 77.2644 651.247 81.5951C654.98 85.7764 661.402 89.4351 670.511 92.5711L694.927 101.083C707.322 105.414 716.506 111.238 722.479 118.555C728.602 125.872 731.663 135.056 731.663 146.107C731.663 155.216 729.572 163.206 725.391 170.075C721.359 176.795 715.386 182.096 707.471 185.979C699.706 189.862 690.298 191.803 679.247 191.803Z" fill="#340E8C"/>
<path d="M764.619 187.995L738.411 74.4271H754.539L776.939 181.499L801.579 74.4271H826.891L851.531 181.499L873.931 74.4271H890.059L863.851 187.995H839.211L814.347 81.1471L789.259 187.995H764.619Z" fill="#340E8C"/>
<path d="M932.845 190.683C922.093 190.683 913.208 187.771 906.189 181.947C899.32 176.123 895.885 168.208 895.885 158.203C895.885 148.496 899.245 140.806 905.965 135.131C912.685 129.456 920.898 125.648 930.605 123.707L979.213 113.403V125.947L939.117 134.459C930.456 136.4 923.661 139.163 918.733 142.747C913.954 146.331 911.565 151.483 911.565 158.203C911.565 164.624 913.73 169.627 918.061 173.211C922.392 176.646 928.44 178.363 936.205 178.363C942.626 178.363 948.301 177.019 953.229 174.331C958.306 171.643 962.264 167.91 965.101 163.131C967.938 158.352 969.357 152.902 969.357 146.779V112.731C969.357 104.219 967.042 97.4991 962.413 92.5711C957.784 87.6431 951.288 85.1791 942.925 85.1791C934.562 85.1791 927.992 87.1951 923.213 91.2271C918.434 95.1098 915.149 100.486 913.357 107.355L899.245 103.771C901.336 94.8111 906.114 87.2698 913.581 81.1471C921.197 74.8751 930.978 71.7391 942.925 71.7391C956.216 71.7391 966.37 75.3231 973.389 82.4911C980.408 89.6591 983.917 99.6644 983.917 112.507V164.027L993.101 187.995H976.973L971.149 171.867C967.416 177.84 962.338 182.47 955.917 185.755C949.496 189.04 941.805 190.683 932.845 190.683Z" fill="#340E8C"/>
<path d="M1005.45 232.795V74.4271H1018.89V95.7071C1021.88 89.5844 1025.54 84.8058 1029.87 81.3711C1034.35 77.7871 1039.13 75.3231 1044.2 73.9791C1049.43 72.4858 1054.43 71.7391 1059.21 71.7391C1068.77 71.7391 1077.36 74.0538 1084.97 78.6831C1092.59 83.1631 1098.64 89.8831 1103.12 98.8431C1107.6 107.654 1109.84 118.48 1109.84 131.323C1109.84 144.166 1107.6 154.992 1103.12 163.803C1098.64 172.614 1092.59 179.334 1084.97 183.963C1077.36 188.443 1068.77 190.683 1059.21 190.683C1054.73 190.683 1050.03 190.011 1045.1 188.667C1040.32 187.323 1035.69 185.008 1031.21 181.723C1026.88 178.288 1023.15 173.659 1020.01 167.835V232.795H1005.45ZM1056.75 177.243C1063.62 177.243 1069.89 175.675 1075.56 172.539C1081.24 169.254 1085.79 164.251 1089.23 157.531C1092.81 150.662 1094.6 141.926 1094.6 131.323C1094.6 120.72 1092.81 112.059 1089.23 105.339C1085.79 98.4698 1081.24 93.3924 1075.56 90.1071C1069.89 86.8218 1063.62 85.1791 1056.75 85.1791C1050.03 85.1791 1043.76 86.8218 1037.93 90.1071C1032.26 93.3924 1027.63 98.4698 1024.04 105.339C1020.61 112.059 1018.89 120.72 1018.89 131.323C1018.89 141.926 1020.61 150.662 1024.04 157.531C1027.63 164.251 1032.26 169.254 1037.93 172.539C1043.76 175.675 1050.03 177.243 1056.75 177.243Z" fill="#340E8C"/>
<path d="M14.5643 205.436C33.9735 224.855 65.452 224.855 84.8711 205.436C94.9707 195.336 99.8105 181.977 99.4105 168.748C98.5605 141.189 117.45 138.909 119.88 161.398C121.499 143.969 112.04 125.39 102.95 116.21C84.0412 97.1109 54.6225 99.3908 55.4125 99.4208C82.1313 100.561 80.7413 121.5 51.2527 120.59C38.0233 120.18 24.6639 125.03 14.5643 135.129C-4.85478 154.538 -4.85478 186.017 14.5643 205.436Z" fill="#E6004C"/>
<path d="M56.2924 99.4705C56.2924 99.4705 112.51 98.9805 119.74 160.268C120.1 162.898 120.23 165.897 120.06 169.257C119.43 181.647 123.809 194.106 135.129 205.436C152.288 222.595 186.017 224.855 205.436 205.436C224.855 186.027 222.595 152.288 205.436 135.129C194.116 123.799 181.657 119.43 169.257 120.06C138.059 121.64 98.4505 82.4613 99.4105 51.2627C99.8205 38.0333 94.9707 24.6739 84.8711 14.5744C65.462 -4.84474 33.9835 -4.84474 14.5643 14.5644C-4.85478 33.9735 -4.85478 65.4521 14.5643 84.8712C24.6639 94.9707 38.0233 99.8105 51.2527 99.4105C53.0326 99.3505 54.7125 99.3805 56.2924 99.4705Z" fill="#340E8C"/>
<path d="M135.129 14.5643C115.71 33.9735 115.71 65.452 135.129 84.8711C154.538 104.29 186.016 104.29 205.436 84.8711C224.855 65.462 224.855 33.9835 205.436 14.5643C186.016 -4.85478 154.548 -4.85478 135.129 14.5643Z" fill="#FFDD00"/>
</svg>
